<svg width="20" height="21" viewBox="0 0 20 21" fill="none" xmlns="http://www.w3.org/2000/svg">
<path d="M16.7647 15.6191H15C14.7059 14.5476 13.75 13.8333 12.5735 13.8333C11.1765 13.8333 10 14.9762 10 16.3333C10 17.6905 11.1765 18.8333 12.5735 18.8333C13.75 18.8333 14.7059 18.1191 15 17.0476H16.7647C17.2059 17.0476 17.5 16.6905 17.5 16.3333C17.5 15.9048 17.2059 15.6191 16.7647 15.6191ZM12.5735 17.4048C11.9853 17.4048 11.4706 16.9048 11.4706 16.3333C11.4706 15.7619 11.9853 15.2619 12.5735 15.2619C13.1618 15.2619 13.6765 15.7619 13.6765 16.3333C13.6765 16.9048 13.1618 17.4048 12.5735 17.4048Z" fill="#8FFF00"/>
<path d="M8.45745 15.5H3.20922C2.78369 15.5 2.5 15.9167 2.5 16.3333C2.5 16.8333 2.85461 17.1667 3.20922 17.1667H8.45745C8.88298 17.1667 9.16667 16.75 9.16667 16.3333C9.16667 15.8333 8.81206 15.5 8.45745 15.5Z" fill="#8FFF00"/>
<path d="M3.20922 5.50001H8.45745C8.88298 5.50001 9.16667 5.08334 9.16667 4.66668C9.16667 4.25001 8.81206 3.83334 8.45745 3.83334H3.20922C2.78369 3.83334 2.5 4.25001 2.5 4.66668C2.5 5.08334 2.85461 5.50001 3.20922 5.50001Z" fill="#8FFF00"/>
<path d="M12.5735 7.16667C13.75 7.16667 14.7059 6.45239 15 5.38096H16.7647C17.2059 5.38096 17.5 5.02381 17.5 4.66667C17.5 4.30953 17.1324 3.95239 16.7647 3.95239H15C14.7059 2.88096 13.75 2.16667 12.5735 2.16667C11.1765 2.16667 10 3.30953 10 4.66667C10 6.02381 11.1765 7.16667 12.5735 7.16667ZM12.5735 3.59524C13.1618 3.59524 13.6765 4.09524 13.6765 4.66667C13.6765 5.2381 13.1618 5.7381 12.5735 5.7381C11.9853 5.7381 11.4706 5.2381 11.4706 4.66667C11.4706 4.09524 11.9853 3.59524 12.5735 3.59524Z" fill="#8FFF00"/>
<path d="M3.23529 11.2143H5C5.29412 12.2143 6.25 13 7.42647 13C8.82353 13 10 11.8571 10 10.5C10 9.14286 8.82353 8 7.42647 8C6.25 8 5.29412 8.71429 5 9.78571H3.23529C2.79412 9.78571 2.5 10.1429 2.5 10.5C2.5 10.8571 2.86765 11.2143 3.23529 11.2143ZM7.42647 9.42857C8.01471 9.42857 8.52941 9.92857 8.52941 10.5C8.52941 11.0714 8.01471 11.5714 7.42647 11.5714C6.83823 11.5714 6.32353 11.0714 6.32353 10.5C6.32353 9.92857 6.83823 9.42857 7.42647 9.42857Z" fill="#8FFF00"/>
<path d="M16.7831 9.66667H11.5502C11.1201 9.66667 10.8333 10.0833 10.8333 10.5C10.8333 10.9167 11.1918 11.3333 11.5502 11.3333H16.7831C17.2133 11.3333 17.5 10.9167 17.5 10.5C17.5 10.0833 17.2133 9.66667 16.7831 9.66667Z" fill="#8FFF00"/>
</svg>
