<svg width="20" height="19" viewBox="0 0 20 19" fill="none" xmlns="http://www.w3.org/2000/svg">
<path d="M16.75 10.9167H10.8333V4.25001C10.8333 3.75001 10.5 3.41668 10 3.41668C9.5 3.41668 9.16667 3.75001 9.16667 4.25001V10.9167H3.25C1.91667 10.9167 0.833336 12 0.833336 13.4167V16.25C0.833336 17.5833 1.91667 18.6667 3.25 18.6667H16.6667C18 18.6667 19.0833 17.5833 19.0833 16.25V13.4167C19.1667 12 18.0833 10.9167 16.75 10.9167ZM17.5 16.25C17.5 16.6667 17.1667 17 16.75 17H3.25C2.83334 17 2.5 16.6667 2.5 16.25V13.4167C2.5 13 2.83334 12.6667 3.25 12.6667H16.6667C17.0833 12.6667 17.4167 13 17.4167 13.4167V16.25H17.5Z" fill="#8FFF00"/>
<path d="M9.25 14H4.66667C4.16667 14 3.83334 14.3333 3.83334 14.8333C3.83334 15.3333 4.16667 15.6667 4.66667 15.6667H9.25C9.75 15.6667 10.0833 15.3333 10.0833 14.8333C10.0833 14.3333 9.66667 14 9.25 14Z" fill="#8FFF00"/>
<path d="M7.33334 6.66668C7.5 6.66668 7.75 6.58335 7.91667 6.41668C8.25 6.08335 8.25 5.58335 8 5.25001C7.75 5.00001 7.58334 4.58335 7.58334 4.25001C7.58334 3.91668 7.75 3.50001 7.91667 3.25001C8.25 2.91668 8.16667 2.41668 7.83334 2.08335C7.5 1.75001 7 1.83335 6.66667 2.16668C6.16667 2.75001 5.83334 3.50001 5.83334 4.25001C5.83334 5.00001 6.08334 5.75001 6.66667 6.33334C6.91667 6.50001 7.08334 6.66668 7.33334 6.66668Z" fill="#8FFF00"/>
<path d="M5.08334 8.16668C5.25 8.16668 5.5 8.08334 5.66667 8.00001C6 7.66668 6.08334 7.16668 5.75 6.83334C5.08334 6.08334 4.75 5.16668 4.75 4.25001C4.75 3.33334 5.08334 2.41668 5.66667 1.66668C6 1.33334 5.91667 0.833344 5.58334 0.500011C5.25 0.166678 4.75 0.250011 4.41667 0.583344C3.58334 1.58334 3.08334 2.83334 3.08334 4.25001C3.08334 5.58334 3.58334 6.91668 4.41667 7.91668C4.58334 8.08334 4.83334 8.16668 5.08334 8.16668Z" fill="#8FFF00"/>
<path d="M12.0833 6.41668C12.25 6.58334 12.4167 6.66668 12.6667 6.66668C12.9167 6.66668 13.0833 6.58334 13.25 6.41668C13.75 5.83334 14.0833 5.08334 14.0833 4.33334C14.0833 3.58334 13.8333 2.83334 13.25 2.25001C12.9167 1.91668 12.4167 1.91668 12.0833 2.16668C11.75 2.50001 11.75 3.00001 12 3.33334C12.25 3.58334 12.3333 3.91668 12.3333 4.33334C12.3333 4.75001 12.1667 5.08334 12 5.33334C11.75 5.58334 11.75 6.08334 12.0833 6.41668Z" fill="#8FFF00"/>
<path d="M14.4167 8.00001C14.5833 8.16668 14.75 8.16668 15 8.16668C15.25 8.16668 15.5 8.08334 15.6667 7.91668C16.5 6.91668 17 5.66668 17 4.25001C17 2.91668 16.5 1.58334 15.6667 0.583344C15.3333 0.250011 14.8333 0.166678 14.5 0.500011C14.1667 0.833344 14.0833 1.33334 14.4167 1.66668C15 2.33334 15.3333 3.25001 15.3333 4.25001C15.3333 5.16668 15 6.08334 14.4167 6.83334C14 7.16668 14 7.66668 14.4167 8.00001Z" fill="#8FFF00"/>
</svg>
