<svg width="20" height="21" viewBox="0 0 20 21" fill="none" xmlns="http://www.w3.org/2000/svg">
<path d="M13.1667 6.83333C12.8333 6.5 12.25 6.58333 12 6.91666C11.6667 7.25 11.75 7.83333 12.0833 8.08333C12.8333 8.66666 13.25 9.58333 13.25 10.5833C13.25 12.3333 11.8333 13.8333 10 13.8333C8.16666 13.8333 6.74999 12.3333 6.74999 10.5C6.74999 9.58333 7.16666 8.66666 7.91666 8C8.25 7.66666 8.33333 7.16666 8 6.83333C7.66666 6.5 7.16666 6.41666 6.83333 6.75C5.74999 7.75 5.08333 9.08333 5.08333 10.5C5.08333 13.1667 7.25 15.4167 10 15.4167C12.6667 15.4167 14.9167 13.25 14.9167 10.5C14.9167 9.08333 14.25 7.75 13.1667 6.83333Z" fill="#8FFF00"/>
<path d="M10 2.16666C5.41666 2.16666 1.66666 5.91666 1.66666 10.5C1.66666 15.0833 5.41666 18.8333 10 18.8333C14.5833 18.8333 18.3333 15.0833 18.3333 10.5C18.3333 5.91666 14.5833 2.16666 10 2.16666ZM10 17.1667C6.33333 17.1667 3.33333 14.1667 3.33333 10.5C3.33333 6.83333 6.33333 3.83333 10 3.83333C13.6667 3.83333 16.6667 6.83333 16.6667 10.5C16.6667 14.1667 13.6667 17.1667 10 17.1667Z" fill="#8FFF00"/>
<path d="M10 9.74999C10.5 9.74999 10.8333 9.41666 10.8333 8.91666V5.91666C10.8333 5.41666 10.5 5.08333 10 5.08333C9.5 5.08333 9.16667 5.41666 9.16667 5.91666V8.99999C9.16667 9.41666 9.5 9.74999 10 9.74999Z" fill="#8FFF00"/>
</svg>
