<svg width="16" height="17" viewBox="0 0 16 17" fill="none" xmlns="http://www.w3.org/2000/svg">
<path fill-rule="evenodd" clip-rule="evenodd" d="M6.70335 0.429954C7.62798 -0.0920356 8.75663 -0.0920356 9.68126 0.429954C9.6882 0.433869 9.69507 0.437894 9.70189 0.442026L14.4616 3.32844C15.4009 3.86396 15.9231 4.83153 15.9231 5.88142V11.1967C15.9231 12.2119 15.427 13.2064 14.5258 13.6793L9.77881 16.558C9.772 16.5621 9.76512 16.5661 9.75819 16.57C8.83355 17.092 7.70491 17.092 6.78027 16.57C6.77334 16.5661 6.76646 16.5621 6.75965 16.558L1.99987 13.6715C1.06064 13.136 0.53846 12.1685 0.53846 11.1186V5.88142C0.53846 4.8325 1.05969 3.86574 1.9973 3.32992L6.67799 0.444921C6.68635 0.439768 6.6948 0.434778 6.70335 0.429954ZM7.46203 1.79011L2.78355 4.67375C2.77519 4.6789 2.76673 4.68389 2.75819 4.68872C2.31983 4.93619 2.07692 5.37211 2.07692 5.88142V11.1186C2.07692 11.6279 2.31983 12.0638 2.75819 12.3113C2.76512 12.3152 2.772 12.3192 2.77881 12.3234L7.53679 15.2087C7.99191 15.4614 8.54655 15.4614 9.00168 15.2087L13.7596 12.3234C13.776 12.3134 13.7928 12.3041 13.8098 12.2954C14.1217 12.137 14.3846 11.7345 14.3846 11.1967V5.88142C14.3846 5.37211 14.1417 4.93619 13.7033 4.68872C13.6964 4.6848 13.6895 4.68078 13.6827 4.67665L8.92476 1.79131C8.47036 1.53902 7.91675 1.53862 7.46203 1.79011ZM8.23076 6.89758C7.33861 6.89758 6.61538 7.63251 6.61538 8.53908C6.61538 9.44566 7.33861 10.1806 8.23076 10.1806C9.12291 10.1806 9.84615 9.44566 9.84615 8.53908C9.84615 7.63251 9.12292 6.89758 8.23076 6.89758ZM5.07692 8.53908C5.07692 6.7691 6.48894 5.33425 8.23076 5.33425C9.97258 5.33425 11.3846 6.7691 11.3846 8.53908C11.3846 10.3091 9.97258 11.7439 8.23076 11.7439C6.48894 11.7439 5.07692 10.3091 5.07692 8.53908Z" fill="#8FFF00"/>
</svg>
