<svg width="18" height="17" viewBox="0 0 18 17" fill="none" xmlns="http://www.w3.org/2000/svg">
<path fill-rule="evenodd" clip-rule="evenodd" d="M14.5801 2.9199C13.1313 1.47114 10.702 1.47114 9.25323 2.9199L7.92259 4.25054C7.59715 4.57598 7.06951 4.57598 6.74408 4.25054C6.41864 3.92511 6.41864 3.39747 6.74408 3.07203L8.07472 1.74139C10.1743 -0.358244 13.659 -0.358244 15.7586 1.74139C17.8582 3.84102 17.8582 7.32564 15.7586 9.42527L14.428 10.7559C14.1025 11.0814 13.5749 11.0814 13.2494 10.7559C12.924 10.4305 12.924 9.90285 13.2495 9.57741L14.5801 8.24676C16.0289 6.79801 16.0289 4.36866 14.5801 2.9199ZM12.0893 5.41074C12.4147 5.73618 12.4147 6.26382 12.0893 6.58925L7.08925 11.5893C6.76382 11.9147 6.23618 11.9147 5.91074 11.5893C5.5853 11.2638 5.5853 10.7362 5.91074 10.4107L10.9107 5.41074C11.2362 5.0853 11.7638 5.0853 12.0893 5.41074ZM4.75054 6.24408C5.07598 6.56951 5.07598 7.09715 4.75054 7.42259L3.4199 8.75323C1.97114 10.202 1.97114 12.6313 3.4199 14.0801C4.86866 15.5289 7.29801 15.5289 8.74676 14.0801L10.0774 12.7495C10.4028 12.424 10.9305 12.424 11.2559 12.7494C11.5814 13.0749 11.5814 13.6025 11.2559 13.928L9.92527 15.2586C7.82564 17.3582 4.34102 17.3582 2.24139 15.2586C0.141756 13.159 0.141756 9.67435 2.24139 7.57472L3.57203 6.24408C3.89747 5.91864 4.42511 5.91864 4.75054 6.24408Z" fill="#8FFF00"/>
</svg>
