<svg width="21" height="21" viewBox="0 0 21 21" fill="none" xmlns="http://www.w3.org/2000/svg">
<path d="M17.2647 15.6191H15.5C15.2059 14.5476 14.25 13.8333 13.0735 13.8333C11.6765 13.8333 10.5 14.9762 10.5 16.3333C10.5 17.6905 11.6765 18.8333 13.0735 18.8333C14.25 18.8333 15.2059 18.1191 15.5 17.0476H17.2647C17.7059 17.0476 18 16.6905 18 16.3333C18 15.9048 17.7059 15.6191 17.2647 15.6191ZM13.0735 17.4048C12.4853 17.4048 11.9706 16.9048 11.9706 16.3333C11.9706 15.7619 12.4853 15.2619 13.0735 15.2619C13.6618 15.2619 14.1765 15.7619 14.1765 16.3333C14.1765 16.9048 13.6618 17.4048 13.0735 17.4048Z" fill="#203800"/>
<path d="M8.95745 15.5H3.70922C3.28369 15.5 3 15.9167 3 16.3333C3 16.8333 3.35461 17.1667 3.70922 17.1667H8.95745C9.38298 17.1667 9.66667 16.75 9.66667 16.3333C9.66667 15.8333 9.31206 15.5 8.95745 15.5Z" fill="#203800"/>
<path d="M3.70922 5.50001H8.95745C9.38298 5.50001 9.66667 5.08334 9.66667 4.66668C9.66667 4.25001 9.31206 3.83334 8.95745 3.83334H3.70922C3.28369 3.83334 3 4.25001 3 4.66668C3 5.08334 3.35461 5.50001 3.70922 5.50001Z" fill="#203800"/>
<path d="M13.0735 7.16667C14.25 7.16667 15.2059 6.45239 15.5 5.38096H17.2647C17.7059 5.38096 18 5.02381 18 4.66667C18 4.30953 17.6324 3.95239 17.2647 3.95239H15.5C15.2059 2.88096 14.25 2.16667 13.0735 2.16667C11.6765 2.16667 10.5 3.30953 10.5 4.66667C10.5 6.02381 11.6765 7.16667 13.0735 7.16667ZM13.0735 3.59524C13.6618 3.59524 14.1765 4.09524 14.1765 4.66667C14.1765 5.2381 13.6618 5.7381 13.0735 5.7381C12.4853 5.7381 11.9706 5.2381 11.9706 4.66667C11.9706 4.09524 12.4853 3.59524 13.0735 3.59524Z" fill="#203800"/>
<path d="M3.73529 11.2143H5.5C5.79412 12.2143 6.75 13 7.92647 13C9.32353 13 10.5 11.8571 10.5 10.5C10.5 9.14286 9.32353 8 7.92647 8C6.75 8 5.79412 8.71429 5.5 9.78571H3.73529C3.29412 9.78571 3 10.1429 3 10.5C3 10.8571 3.36765 11.2143 3.73529 11.2143ZM7.92647 9.42857C8.51471 9.42857 9.02941 9.92857 9.02941 10.5C9.02941 11.0714 8.51471 11.5714 7.92647 11.5714C7.33823 11.5714 6.82353 11.0714 6.82353 10.5C6.82353 9.92857 7.33823 9.42857 7.92647 9.42857Z" fill="#203800"/>
<path d="M17.2831 9.66667H12.0502C11.6201 9.66667 11.3333 10.0833 11.3333 10.5C11.3333 10.9167 11.6917 11.3333 12.0502 11.3333H17.2831C17.7132 11.3333 18 10.9167 18 10.5C18 10.0833 17.7132 9.66667 17.2831 9.66667Z" fill="#203800"/>
</svg>
