<svg width="17" height="17" viewBox="0 0 17 17" fill="none" xmlns="http://www.w3.org/2000/svg">
<path d="M11.6667 4.83333C11.3334 4.5 10.75 4.58333 10.5 4.91666C10.1667 5.25 10.25 5.83333 10.5834 6.08333C11.3334 6.66666 11.75 7.58333 11.75 8.58333C11.75 10.3333 10.3334 11.8333 8.50004 11.8333C6.66671 11.8333 5.25004 10.3333 5.25004 8.5C5.25004 7.58333 5.66671 6.66666 6.41671 6C6.75004 5.66666 6.83337 5.16666 6.50004 4.83333C6.16671 4.5 5.66671 4.41666 5.33337 4.75C4.25004 5.75 3.58337 7.08333 3.58337 8.5C3.58337 11.1667 5.75004 13.4167 8.50004 13.4167C11.1667 13.4167 13.4167 11.25 13.4167 8.5C13.4167 7.08333 12.75 5.75 11.6667 4.83333Z" fill="#203800"/>
<path d="M8.50002 0.166664C3.91669 0.166664 0.166687 3.91666 0.166687 8.5C0.166687 13.0833 3.91669 16.8333 8.50002 16.8333C13.0834 16.8333 16.8334 13.0833 16.8334 8.5C16.8334 3.91666 13.0834 0.166664 8.50002 0.166664ZM8.50002 15.1667C4.83335 15.1667 1.83335 12.1667 1.83335 8.5C1.83335 4.83333 4.83335 1.83333 8.50002 1.83333C12.1667 1.83333 15.1667 4.83333 15.1667 8.5C15.1667 12.1667 12.1667 15.1667 8.50002 15.1667Z" fill="#203800"/>
<path d="M8.50002 7.74999C9.00002 7.74999 9.33335 7.41666 9.33335 6.91666V3.91666C9.33335 3.41666 9.00002 3.08333 8.50002 3.08333C8.00002 3.08333 7.66669 3.41666 7.66669 3.91666V6.99999C7.66669 7.41666 8.00002 7.74999 8.50002 7.74999Z" fill="#203800"/>
</svg>
