<svg width="21" height="21" viewBox="0 0 21 21" fill="none" xmlns="http://www.w3.org/2000/svg">
<path d="M17.25 11.9167H11.3333V5.25001C11.3333 4.75001 11 4.41668 10.5 4.41668C9.99998 4.41668 9.66665 4.75001 9.66665 5.25001V11.9167H3.74998C2.41665 11.9167 1.33331 13 1.33331 14.4167V17.25C1.33331 18.5833 2.41665 19.6667 3.74998 19.6667H17.1666C18.5 19.6667 19.5833 18.5833 19.5833 17.25V14.4167C19.6666 13 18.5833 11.9167 17.25 11.9167ZM18 17.25C18 17.6667 17.6666 18 17.25 18H3.74998C3.33331 18 2.99998 17.6667 2.99998 17.25V14.4167C2.99998 14 3.33331 13.6667 3.74998 13.6667H17.1666C17.5833 13.6667 17.9166 14 17.9166 14.4167V17.25H18Z" fill="#203800"/>
<path d="M9.74998 15H5.16665C4.66665 15 4.33331 15.3333 4.33331 15.8333C4.33331 16.3333 4.66665 16.6667 5.16665 16.6667H9.74998C10.25 16.6667 10.5833 16.3333 10.5833 15.8333C10.5833 15.3333 10.1666 15 9.74998 15Z" fill="#203800"/>
<path d="M7.83331 7.66668C7.99998 7.66668 8.24998 7.58335 8.41665 7.41668C8.74998 7.08335 8.74998 6.58335 8.49998 6.25001C8.24998 6.00001 8.08331 5.58335 8.08331 5.25001C8.08331 4.91668 8.24998 4.50001 8.41665 4.25001C8.74998 3.91668 8.66665 3.41668 8.33331 3.08335C7.99998 2.75001 7.49998 2.83335 7.16665 3.16668C6.66665 3.75001 6.33331 4.50001 6.33331 5.25001C6.33331 6.00001 6.58331 6.75001 7.16665 7.33334C7.41665 7.50001 7.58331 7.66668 7.83331 7.66668Z" fill="#203800"/>
<path d="M5.58331 9.16668C5.74998 9.16668 5.99998 9.08334 6.16665 9.00001C6.49998 8.66668 6.58331 8.16668 6.24998 7.83334C5.58331 7.08334 5.24998 6.16668 5.24998 5.25001C5.24998 4.33334 5.58331 3.41668 6.16665 2.66668C6.49998 2.33334 6.41665 1.83334 6.08331 1.50001C5.74998 1.16668 5.24998 1.25001 4.91665 1.58334C4.08331 2.58334 3.58331 3.83334 3.58331 5.25001C3.58331 6.58334 4.08331 7.91668 4.91665 8.91668C5.08331 9.08334 5.33331 9.16668 5.58331 9.16668Z" fill="#203800"/>
<path d="M12.5833 7.41668C12.75 7.58334 12.9166 7.66668 13.1666 7.66668C13.4166 7.66668 13.5833 7.58334 13.75 7.41668C14.25 6.83334 14.5833 6.08334 14.5833 5.33334C14.5833 4.58334 14.3333 3.83334 13.75 3.25001C13.4166 2.91668 12.9166 2.91668 12.5833 3.16668C12.25 3.50001 12.25 4.00001 12.5 4.33334C12.75 4.58334 12.8333 4.91668 12.8333 5.33334C12.8333 5.75001 12.6666 6.08334 12.5 6.33334C12.25 6.58334 12.25 7.08334 12.5833 7.41668Z" fill="#203800"/>
<path d="M14.9166 9.00001C15.0833 9.16668 15.25 9.16668 15.5 9.16668C15.75 9.16668 16 9.08334 16.1666 8.91668C17 7.91668 17.5 6.66668 17.5 5.25001C17.5 3.91668 17 2.58334 16.1666 1.58334C15.8333 1.25001 15.3333 1.16668 15 1.50001C14.6666 1.83334 14.5833 2.33334 14.9166 2.66668C15.5 3.33334 15.8333 4.25001 15.8333 5.25001C15.8333 6.16668 15.5 7.08334 14.9166 7.83334C14.5 8.16668 14.5 8.66668 14.9166 9.00001Z" fill="#203800"/>
</svg>
