<svg width="16" height="17" viewBox="0 0 16 17" fill="none" xmlns="http://www.w3.org/2000/svg">
<path fill-rule="evenodd" clip-rule="evenodd" d="M6.20334 0.429954C7.12797 -0.0920356 8.25662 -0.0920356 9.18125 0.429954C9.18819 0.433869 9.19507 0.437894 9.20188 0.442026L13.9616 3.32844C14.9009 3.86396 15.4231 4.83153 15.4231 5.88142V11.1967C15.4231 12.2119 14.927 13.2064 14.0258 13.6793L9.2788 16.558C9.27199 16.5621 9.26511 16.5661 9.25818 16.57C8.33354 17.092 7.2049 17.092 6.28026 16.57C6.27333 16.5661 6.26645 16.5621 6.25964 16.558L1.49987 13.6715C0.560635 13.136 0.0384521 12.1685 0.0384521 11.1186V5.88142C0.0384521 4.8325 0.559683 3.86574 1.49729 3.32992L6.17798 0.444921C6.18634 0.439768 6.1948 0.434778 6.20334 0.429954ZM6.96202 1.79011L2.28354 4.67375C2.27518 4.6789 2.26672 4.68389 2.25818 4.68872C1.81982 4.93619 1.57691 5.37211 1.57691 5.88142V11.1186C1.57691 11.6279 1.81982 12.0638 2.25818 12.3113C2.26511 12.3152 2.27199 12.3192 2.2788 12.3234L7.03678 15.2087C7.49191 15.4614 8.04655 15.4614 8.50167 15.2087L13.2596 12.3234C13.276 12.3134 13.2928 12.3041 13.3098 12.2954C13.6217 12.137 13.8846 11.7345 13.8846 11.1967V5.88142C13.8846 5.37211 13.6417 4.93619 13.2033 4.68872C13.1964 4.6848 13.1895 4.68078 13.1827 4.67665L8.42475 1.79131C7.97035 1.53902 7.41674 1.53862 6.96202 1.79011ZM7.73075 6.89758C6.8386 6.89758 6.11537 7.63251 6.11537 8.53908C6.11537 9.44566 6.8386 10.1806 7.73075 10.1806C8.62291 10.1806 9.34614 9.44566 9.34614 8.53908C9.34614 7.63251 8.62291 6.89758 7.73075 6.89758ZM4.57691 8.53908C4.57691 6.7691 5.98893 5.33425 7.73075 5.33425C9.47258 5.33425 10.8846 6.7691 10.8846 8.53908C10.8846 10.3091 9.47258 11.7439 7.73075 11.7439C5.98893 11.7439 4.57691 10.3091 4.57691 8.53908Z" fill="#203800"/>
</svg>
