<svg width="17" height="17" viewBox="0 0 17 17" fill="none" xmlns="http://www.w3.org/2000/svg">
<path fill-rule="evenodd" clip-rule="evenodd" d="M14.0801 2.9199C12.6314 1.47114 10.202 1.47114 8.75325 2.9199L7.42261 4.25054C7.09717 4.57598 6.56953 4.57598 6.2441 4.25054C5.91866 3.92511 5.91866 3.39747 6.2441 3.07203L7.57474 1.74139C9.67437 -0.358244 13.159 -0.358244 15.2586 1.74139C17.3583 3.84102 17.3583 7.32564 15.2586 9.42527L13.928 10.7559C13.6025 11.0814 13.0749 11.0814 12.7495 10.7559C12.424 10.4305 12.424 9.90285 12.7495 9.57741L14.0801 8.24676C15.5289 6.79801 15.5289 4.36866 14.0801 2.9199ZM11.5893 5.41074C11.9147 5.73618 11.9147 6.26382 11.5893 6.58925L6.58928 11.5893C6.26384 11.9147 5.7362 11.9147 5.41076 11.5893C5.08533 11.2638 5.08533 10.7362 5.41076 10.4107L10.4108 5.41074C10.7362 5.0853 11.2638 5.0853 11.5893 5.41074ZM4.25057 6.24408C4.576 6.56951 4.576 7.09715 4.25057 7.42259L2.91992 8.75323C1.47116 10.202 1.47116 12.6313 2.91992 14.0801C4.36868 15.5289 6.79803 15.5289 8.24679 14.0801L9.57743 12.7495C9.90287 12.424 10.4305 12.424 10.7559 12.7494C11.0814 13.0749 11.0814 13.6025 10.7559 13.928L9.4253 15.2586C7.32567 17.3582 3.84104 17.3582 1.74141 15.2586C-0.358221 13.159 -0.358221 9.67435 1.74141 7.57472L3.07205 6.24408C3.39749 5.91864 3.92513 5.91864 4.25057 6.24408Z" fill="#203800"/>
</svg>
