<svg width="36" height="36" viewBox="0 0 36 36" fill="none" xmlns="http://www.w3.org/2000/svg">
<rect width="36" height="36" rx="12" fill="#1E1E1E"/>
<path d="M17.9962 24.6666H14.1934C13.593 24.6666 13.126 24.3299 12.8592 23.8586C12.5923 23.3198 12.659 22.7138 12.9926 22.2424L15.7946 18.2693C15.8613 18.1347 15.8613 17.9326 15.7946 17.798L12.9259 13.7576C12.5923 13.2862 12.5923 12.6801 12.8592 12.1414C13.126 11.67 13.593 11.3333 14.1934 11.3333H17.9962C18.73 11.3333 19.4639 11.67 19.8642 12.3434L22.933 16.7205C23.4668 17.5286 23.4668 18.606 22.933 19.3468L19.8642 23.7239C19.4639 24.2626 18.73 24.6666 17.9962 24.6666ZM14.1934 12.6801C14.06 12.6801 14.06 12.7475 13.9933 12.8148C13.9933 12.8821 13.9266 12.9495 13.9933 13.0168L16.7953 16.9899C17.1956 17.5959 17.1956 18.404 16.7953 19.0101L13.9933 22.9831C13.9933 23.0505 13.9933 23.1178 13.9933 23.1852C13.9933 23.2525 14.06 23.3198 14.1934 23.3198H17.9962C18.3297 23.3198 18.5966 23.1852 18.7967 22.9158L21.8656 18.5387C22.0657 18.202 22.0657 17.798 21.8656 17.4613L18.7967 13.0842C18.5966 12.8148 18.3297 12.6801 17.9962 12.6801H14.1934Z" fill="#8FFF00"/>
</svg>
