<svg width="36" height="36" viewBox="0 0 36 36" fill="none" xmlns="http://www.w3.org/2000/svg">
<rect width="36" height="36" rx="12" fill="#1E1E1E"/>
<path d="M18.0038 11.3334H21.8065C22.407 11.3334 22.874 11.6701 23.1408 12.1414C23.4077 12.6802 23.341 13.2862 23.0074 13.7576L20.2054 17.7307C20.1387 17.8653 20.1387 18.0674 20.2054 18.202L23.0741 22.2424C23.4077 22.7138 23.4077 23.3199 23.1408 23.8586C22.874 24.33 22.407 24.6667 21.8065 24.6667H18.0038C17.2699 24.6667 16.5361 24.33 16.1358 23.6566L13.0669 19.2795C12.5332 18.4714 12.5332 17.394 13.0669 16.6532L16.1358 12.2761C16.5361 11.7374 17.2699 11.3334 18.0038 11.3334ZM21.8065 23.3199C21.94 23.3199 21.94 23.2525 22.0067 23.1852C22.0067 23.1179 22.0734 23.0505 22.0067 22.9832L19.2047 19.0101C18.8044 18.4041 18.8044 17.596 19.2047 16.9899L22.0067 13.0169C22.0067 12.9495 22.0067 12.8822 22.0067 12.8148C22.0067 12.7475 21.94 12.6802 21.8065 12.6802H18.0038C17.6702 12.6802 17.4034 12.8148 17.2032 13.0842L14.1344 17.4613C13.9342 17.798 13.9342 18.202 14.1344 18.5387L17.2032 22.9158C17.4034 23.1852 17.6702 23.3199 18.0038 23.3199H21.8065Z" fill="#8FFF00"/>
</svg>
