<svg width="12" height="12" viewBox="0 0 12 12" fill="none" xmlns="http://www.w3.org/2000/svg">
<path d="M6.1 11C5.9 11 5.65 10.9499 5.45 10.8498C4.85 10.5995 4.5 9.99863 4.5 9.34774V8.4465H1.9C1.1 8.4465 0.5 7.79561 0.5 6.99451V5.04184C0.5 4.24074 1.15 3.58985 1.9 3.58985H4.5V2.63854C4.5 1.98765 4.85 1.38683 5.45 1.13649C6 0.886142 6.65 0.986279 7.15 1.38683L10.95 4.74142C11.3 5.04184 11.5 5.49245 11.5 5.99314C11.5 6.49382 11.3 6.94444 10.95 7.24485L7.15 10.5995C6.85 10.8498 6.45 11 6.1 11ZM1.9 4.59122C1.7 4.59122 1.5 4.79149 1.5 5.04184V6.94444C1.5 7.19479 1.7 7.39506 1.9 7.39506H5C5.3 7.39506 5.5 7.59533 5.5 7.89575V9.29767C5.5 9.64815 5.7 9.84842 5.9 9.89849C6 9.94856 6.25 9.99863 6.5 9.79835L10.3 6.44376C10.45 6.29355 10.55 6.14334 10.55 5.94307C10.55 5.7428 10.45 5.54252 10.3 5.44238L6.5 2.08779C6.25 1.88751 6 1.93758 5.9 1.98765C5.7 2.13786 5.5 2.33813 5.5 2.63854V4.04046C5.5 4.34088 5.3 4.54115 5 4.54115H1.9V4.59122Z" fill="#747DA4"/>
</svg>
