<svg width="18" height="13" viewBox="0 0 18 13" fill="none" xmlns="http://www.w3.org/2000/svg">
<g clip-path="url(#clip0_0_54)">
<path d="M14.7332 1.0842C13.6506 0.577702 12.4931 0.2096 11.2829 0C11.1343 0.2687 10.9607 0.630108 10.841 0.917606C9.55456 0.724145 8.27997 0.724145 7.01721 0.917606C6.89752 0.630108 6.71995 0.2687 6.57 0C5.35854 0.2096 4.1997 0.579055 3.11715 1.08688C0.93364 4.38646 0.341725 7.60407 0.637683 10.776C2.0859 11.8575 3.4894 12.5145 4.86922 12.9444C5.2099 12.4755 5.51374 11.9771 5.7755 11.4518C5.27698 11.2623 4.7995 11.0286 4.34835 10.7572C4.46803 10.6685 4.58511 10.5758 4.69822 10.4804C7.44996 11.7675 10.4398 11.7675 13.1587 10.4804C13.2731 10.5758 13.3902 10.6685 13.5085 10.7572C13.0561 11.0299 12.5773 11.2637 12.0788 11.4531C12.3405 11.9771 12.643 12.4769 12.985 12.9457C14.3662 12.5158 15.771 11.8588 17.2192 10.776C17.5665 7.09893 16.626 3.91086 14.7332 1.0842ZM6.15039 8.82529C5.32434 8.82529 4.64692 8.05413 4.64692 7.11504C4.64692 6.17596 5.30988 5.40346 6.15039 5.40346C6.99092 5.40346 7.66832 6.1746 7.65386 7.11504C7.65516 8.05413 6.99092 8.82529 6.15039 8.82529ZM11.7065 8.82529C10.8805 8.82529 10.203 8.05413 10.203 7.11504C10.203 6.17596 10.866 5.40346 11.7065 5.40346C12.547 5.40346 13.2244 6.1746 13.21 7.11504C13.21 8.05413 12.547 8.82529 11.7065 8.82529Z" fill="#747DA4"/>
</g>
<defs>
<clipPath id="clip0_0_54">
<rect width="16.7236" height="13" fill="white" transform="translate(0.566666)"/>
</clipPath>
</defs>
</svg>
